Coordinates
version=1
nRows=13
nColumns=36
inDegrees=yes

Units are S.I. units (second, meters, Newtons, ...)
If the header above contains a line with 'inDegrees', this indicates whether rotational values are in degrees (yes) or radians (no).

endheader
time	pelvis_tilt	pelvis_list	pelvis_rotation	pelvis_tx	pelvis_ty	pelvis_tz	hip_flexion_r	hip_adduction_r	hip_rotation_r	knee_angle_r	knee_angle_r_beta	ankle_angle_r	subtalar_angle_r	mtp_angle_r	hip_flexion_l	hip_adduction_l	hip_rotation_l	knee_angle_l	knee_angle_l_beta	ankle_angle_l	subtalar_angle_l	mtp_angle_l	lumbar_extension	lumbar_bending	lumbar_rotation	arm_flex_r	arm_add_r	arm_rot_r	elbow_flex_r	pro_sup_r	arm_flex_l	arm_add_l	arm_rot_l	elbow_flex_l	pro_sup_l
      1.72083330	    -32.21006112	      1.63727827	      0.51694697	     -0.99945292	      1.08827021	     -0.07134877	     72.01161902	     -1.11971651	      5.88900227	     74.59272620	      1.30188867	     34.94450564	    -14.41575818	     -7.49999987	     72.40662452	      2.48702598	      3.54004139	     74.04692216	      1.29236259	     25.48545169	    -19.35154356	     -7.49999987	    -31.30105013	      2.16465328	      1.19021639	     -5.49013943	    -18.46898747	     19.77403334	     30.95325770	     60.87346923	     -1.67618891	    -19.50969205	     39.76456206	     28.99001451	     43.04013612
      1.72500000	    -32.11051383	      1.89068320	      0.21381107	     -1.00701795	      1.08814497	     -0.07554739	     72.09092182	     -0.91159811	      6.15682688	     74.87678291	      1.30684640	     34.90451590	    -14.95115787	     -7.49999987	     72.72049493	      2.45557257	      3.25311048	     74.55384217	      1.30121002	     25.36506168	    -19.59088033	     -7.49999987	    -32.10252123	      1.40612621	      1.32926484	     -2.82345199	    -19.55868528	     27.15683654	     29.91312069	     61.31490113	      1.81486396	    -19.66975053	     45.29415558	     27.52348245	     44.22474595
      1.72916670	    -32.14683600	      2.01447496	      0.06654435	     -1.00601343	      1.08779447	     -0.07475743	     72.27231177	     -0.84815844	      6.41222074	     75.19100365	      1.31233058	     34.91659371	    -15.44139226	     -7.49999987	     72.94018457	      2.36904193	      3.05703148	     74.84472223	      1.30628683	     25.36556642	    -19.86031732	     -7.49999987	    -32.94292784	      0.81425462	      1.77668104	     -0.39365843	    -20.36391387	     33.71792966	     29.57509248	     54.35166768	      4.53462941	    -20.14784769	     49.66756185	     27.83272117	     42.57558497
      1.73333330	    -32.48524941	      2.13788475	      0.01600715	     -1.00598505	      1.08745218	     -0.07466091	     72.76254065	     -0.77626152	      6.77522098	     75.10013367	      1.31074460	     34.49999927	    -15.86505494	     -7.49999987	     73.46216297	      2.20872559	      2.70000458	     75.01529978	      1.30926397	     25.15127204	    -20.29156994	     -7.49999987	    -33.49583803	      0.11220094	      2.97598856	      1.47493181	    -21.63509668	     34.66418965	     30.22534651	     54.85530080	      6.51185993	    -20.05528891	     49.58436593	     28.66811653	     43.49684453
      1.73750000	    -32.87263702	      1.99593230	      0.08571640	     -0.99826748	      1.08726656	     -0.07009300	     72.86417203	     -0.53035562	      6.71126795	     74.76234763	      1.30484912	     34.47719722	    -16.00350876	     -7.49999987	     73.44960745	      2.03022065	      2.91424759	     75.09941863	      1.31073212	     24.98358588	    -20.36980203	     -7.49999987	    -33.28494574	     -0.28292782	      3.01616953	      4.98005218	    -23.68577124	     42.27528108	     29.90929394	     55.32437824	      8.65491584	    -20.67705572	     52.90297190	     28.29681027	     44.52069225
      1.74166670	    -33.38950221	      1.91147973	      0.06036967	     -0.99873243	      1.08701917	     -0.07023222	     73.18762582	     -0.20254937	      6.69075941	     74.40624970	      1.29863404	     34.26634852	    -16.29033504	     -7.49999987	     73.85723721	      1.82679961	      2.88063015	     75.17649841	      1.31207742	     24.99432470	    -19.75780203	     -7.49999987	    -32.94362261	     -1.34274062	      3.03280990	      7.40321552	    -25.58217962	     43.08902398	     31.08626026	     55.59959764	     10.33208970	    -20.71376574	     52.25202458	     27.59706597	     45.16884906
      1.74583330	    -33.62449555	      1.88917505	     -0.06481336	     -1.00391286	      1.08269767	     -0.07396179	     73.89211767	     -0.03405855	      6.78155503	     74.76418689	      1.30488122	     34.18165148	    -16.24042212	     -7.49999987	     74.25464434	      1.78899798	      2.77579800	     75.42882828	      1.31648140	     25.01262835	    -20.23164810	     -7.49999987	    -33.17181702	     -1.71704756	      2.43372144	     10.83180822	    -27.27623316	     45.33897737	     31.29667106	     56.23255135	     12.21252100	    -20.41293150	     52.23866855	     26.85590308	     45.64169555
      1.75000000	    -33.82300264	      2.03420956	     -0.07418909	     -0.99806450	      1.08272259	     -0.06994137	     74.09649535	      0.04856190	      6.84012952	     75.31004862	      1.31440831	     34.97475470	    -16.11858646	     -7.49999987	     74.24215342	      1.73731084	      2.65608034	     75.31102358	      1.31442532	     25.03233759	    -20.67738110	     -7.49999987	    -33.60008624	     -2.03670028	      1.59443341	     14.04895587	    -28.15903031	     47.42610265	     31.33126853	     56.67808156	     13.85350935	    -20.89733904	     52.83722156	     27.46167912	     45.55965240
      1.75416670	    -34.14249111	      2.10749962	     -0.10447897	     -0.99612921	      1.08548737	     -0.06930644	     74.07284463	      0.08492229	      6.80491043	     75.11748175	      1.31104738	     35.06413150	    -16.18585239	     -7.49999987	     74.29957759	      1.71268645	      2.56805635	     75.07209617	      1.31025525	     25.36712566	    -20.21703207	     -7.49999987	    -33.75099129	     -2.01740344	      1.39393487	     15.74740619	    -29.03103094	     46.96165811	     32.15112688	     56.75301892	     15.79889338	    -21.49007541	     52.40507328	     28.63539661	     46.04441651
      1.75833330	    -34.24830670	      2.29318049	      0.19933420	     -0.99060508	      1.07872342	     -0.06570909	     73.87672569	     -0.03955795	      6.88506206	     75.57294833	      1.31899677	     35.84655829	    -15.97000294	     -7.49999987	     74.06854129	      1.80558167	      2.46361670	     75.01449810	      1.30924998	     25.87874783	    -19.87852437	     -7.49999987	    -33.36754636	     -2.05779555	      1.01802843	     17.30892764	    -28.57619713	     46.41151338	     30.59779058	     56.68622891	     17.78536276	    -22.69569105	     52.20854945	     29.68326509	     46.19979310
      1.76250000	    -34.57691156	      2.29067666	      0.38000204	     -0.98973531	      1.07844822	     -0.06526396	     73.86228111	      0.13980382	      6.95364765	     75.66084395	      1.32053084	     36.16966904	    -16.35198564	     -7.49999987	     74.47434759	      1.52286340	      2.11344332	     75.48172383	      1.31740461	     26.45100778	    -18.92459164	     -7.49999987	    -33.13902798	     -2.28720424	      0.31301652	     19.32946567	    -27.92871159	     44.98103671	     29.80379034	     56.85478914	     19.64452031	    -23.65771096	     51.37778840	     30.60164820	     47.03972571
      1.76666670	    -34.99867118	      2.35150170	      0.43724698	     -0.98988656	      1.07465074	     -0.06566510	     74.21025953	      0.23723983	      7.13890330	     75.85780851	      1.32396852	     36.61343943	    -16.41006721	     -7.49999987	     75.10207245	      1.35799546	      1.81397973	     76.14293857	      1.32894498	     26.57913717	    -18.62192076	     -7.49999987	    -32.62896474	     -2.68903262	     -0.48991151	     21.56909536	    -27.34139953	     43.25042459	     30.25149303	     57.28070115	     21.00668874	    -24.89556605	     51.14841736	     31.89329144	     48.26949656
      1.77083330	    -35.47886104	      2.31785918	      0.57794359	     -0.98879140	      1.07040597	     -0.06544326	     74.88691466	      0.19170738	      7.10089998	     76.50601561	      1.33528187	     37.05621776	    -16.33542472	     -7.49999987	     75.99350569	      1.28691319	      1.73570668	     76.98127285	      1.34357667	     27.03138820	    -18.12403580	     -7.49999987	    -32.01160746	     -2.98054845	     -0.91482415	     23.33932576	    -27.19641517	     42.42163034	     30.78788108	     57.48190370	     22.37652269	    -25.60400395	     51.07597179	     32.68173158	     48.68566752
